<svg class="svg-icon" style="width: 1em; height: 1em;vertical-align: middle;fill: currentColor;overflow: hidden;" viewBox="0 0 1024 1024" version="1.1" xmlns="http://www.w3.org/2000/svg"><path d="M216.9856 315.2896m-32.768 0a32.768 32.768 0 1 0 65.536 0 32.768 32.768 0 1 0-65.536 0Z"  /><path d="M806.912 282.5216H348.16c-18.1248 0-32.8704 14.7456-32.8704 32.8704 0 18.1248 14.7456 32.8704 32.8704 32.8704h458.752c18.1248 0 32.8704-14.7456 32.8704-32.8704 0-18.1248-14.7456-32.8704-32.8704-32.8704z"  /><path d="M216.9856 512.1024m-32.768 0a32.768 32.768 0 1 0 65.536 0 32.768 32.768 0 1 0-65.536 0Z"  /><path d="M806.912 479.3344H348.16c-18.1248 0-32.8704 14.7456-32.8704 32.8704 0 18.1248 14.7456 32.8704 32.8704 32.8704h458.752c18.1248 0 32.8704-14.7456 32.8704-32.8704 0-18.1248-14.7456-32.8704-32.8704-32.8704z"  /><path d="M216.9856 708.5056m-32.768 0a32.768 32.768 0 1 0 65.536 0 32.768 32.768 0 1 0-65.536 0Z"  /><path d="M806.912 675.7376H348.16c-18.1248 0-32.8704 14.7456-32.8704 32.8704 0 18.1248 14.7456 32.8704 32.8704 32.8704h458.752c18.1248 0 32.8704-14.7456 32.8704-32.8704 0-18.1248-14.7456-32.8704-32.8704-32.8704z"  /></svg>